name rise30.8019peak61.5557fall86.2505.mot
datacolumns 19
datarows 33
range 13.82994900000000 13.88328100000000
endheader
time	ground_force1_vx	ground_force1_vy	ground_force1_vz	ground_force1_px	ground_force1_py	ground_force1_pz	ground_force2_vx	ground_force2_vy	ground_force2_vz	ground_force2_px	ground_force2_py	ground_force2_pz	ground_torque1_x	ground_torque1_y	ground_torque1_z	ground_torque2_x	ground_torque2_y	ground_torque2_z	
13.82994900000000	48.98674400000000	756.90861700000005	48.05098900000000	0.20822700000000	0.00000000000000	0.11002900000000	0.00000000000000	0.00000000000000	0.00000000000000	0.00000000000000	0.00000000000000	0.00000000000000	0.00000000000000	9.98167400000000	0.00000000000000	0.00000000000000	0.00000000000000	0.00000000000000	
13.83161600000000	48.31942800000000	758.23587799999996	48.23642300000000	0.20710800000000	0.00000000000000	0.11005700000000	0.00000000000000	0.00000000000000	0.00000000000000	0.00000000000000	0.00000000000000	0.00000000000000	0.00000000000000	10.08209800000000	0.00000000000000	0.00000000000000	0.00000000000000	0.00000000000000	
13.83328000000000	47.64822000000000	759.41892700000005	48.41390600000000	0.20598000000000	0.00000000000000	0.11008600000000	0.00000000000000	0.00000000000000	0.00000000000000	0.00000000000000	0.00000000000000	0.00000000000000	0.00000000000000	10.18017900000000	0.00000000000000	0.00000000000000	0.00000000000000	0.00000000000000	
13.83495400000000	46.97314100000000	760.45830999999998	48.58265100000000	0.20484100000000	0.00000000000000	0.11011600000000	0.00000000000000	0.00000000000000	0.00000000000000	0.00000000000000	0.00000000000000	0.00000000000000	0.00000000000000	10.27560600000000	0.00000000000000	0.00000000000000	0.00000000000000	0.00000000000000	
13.83661600000000	46.29420900000000	761.35479899999996	48.74187300000000	0.20369200000000	0.00000000000000	0.11014500000000	0.00000000000000	0.00000000000000	0.00000000000000	0.00000000000000	0.00000000000000	0.00000000000000	0.00000000000000	10.36807200000000	0.00000000000000	0.00000000000000	0.00000000000000	0.00000000000000	
13.83828500000000	45.61144800000000	762.10939900000005	48.89079600000000	0.20253000000000	0.00000000000000	0.11017500000000	0.00000000000000	0.00000000000000	0.00000000000000	0.00000000000000	0.00000000000000	0.00000000000000	0.00000000000000	10.45727600000000	0.00000000000000	0.00000000000000	0.00000000000000	0.00000000000000	
13.83995000000000	44.92488700000000	762.72334699999999	49.02866200000000	0.20135500000000	0.00000000000000	0.11020500000000	0.00000000000000	0.00000000000000	0.00000000000000	0.00000000000000	0.00000000000000	0.00000000000000	0.00000000000000	10.54292700000000	0.00000000000000	0.00000000000000	0.00000000000000	0.00000000000000	
13.84161400000000	44.23456600000000	763.19811500000003	49.15472800000000	0.20016600000000	0.00000000000000	0.11023500000000	0.00000000000000	0.00000000000000	0.00000000000000	0.00000000000000	0.00000000000000	0.00000000000000	0.00000000000000	10.62474700000000	0.00000000000000	0.00000000000000	0.00000000000000	0.00000000000000	
13.84328400000000	43.54053700000000	763.53540599999997	49.26828100000000	0.19896300000000	0.00000000000000	0.11026500000000	0.00000000000000	0.00000000000000	0.00000000000000	0.00000000000000	0.00000000000000	0.00000000000000	0.00000000000000	10.70246700000000	0.00000000000000	0.00000000000000	0.00000000000000	0.00000000000000	
13.84495400000000	42.84286600000000	763.73715600000003	49.36863300000000	0.19774500000000	0.00000000000000	0.11029500000000	0.00000000000000	0.00000000000000	0.00000000000000	0.00000000000000	0.00000000000000	0.00000000000000	0.00000000000000	10.77583400000000	0.00000000000000	0.00000000000000	0.00000000000000	0.00000000000000	
13.84662700000000	42.14164000000000	763.80552999999998	49.45513100000000	0.19651300000000	0.00000000000000	0.11032500000000	0.00000000000000	0.00000000000000	0.00000000000000	0.00000000000000	0.00000000000000	0.00000000000000	0.00000000000000	10.84461000000000	0.00000000000000	0.00000000000000	0.00000000000000	0.00000000000000	
13.84828400000000	41.43696400000000	763.74292000000003	49.52716200000000	0.19526400000000	0.00000000000000	0.11035500000000	0.00000000000000	0.00000000000000	0.00000000000000	0.00000000000000	0.00000000000000	0.00000000000000	0.00000000000000	10.90857700000000	0.00000000000000	0.00000000000000	0.00000000000000	0.00000000000000	
13.84995000000000	40.72896500000000	763.55193899999995	49.58415300000000	0.19400000000000	0.00000000000000	0.11038400000000	0.00000000000000	0.00000000000000	0.00000000000000	0.00000000000000	0.00000000000000	0.00000000000000	0.00000000000000	10.96753100000000	0.00000000000000	0.00000000000000	0.00000000000000	0.00000000000000	
13.85161400000000	40.01779500000000	763.23541699999998	49.62557900000000	0.19272000000000	0.00000000000000	0.11041300000000	0.00000000000000	0.00000000000000	0.00000000000000	0.00000000000000	0.00000000000000	0.00000000000000	0.00000000000000	11.02129300000000	0.00000000000000	0.00000000000000	0.00000000000000	0.00000000000000	
13.85328000000000	39.30363000000000	762.79639799999995	49.65096300000000	0.19142400000000	0.00000000000000	0.11044200000000	0.00000000000000	0.00000000000000	0.00000000000000	0.00000000000000	0.00000000000000	0.00000000000000	0.00000000000000	11.06970000000000	0.00000000000000	0.00000000000000	0.00000000000000	0.00000000000000	
13.85495000000000	38.58667400000000	762.23812699999996	49.65988200000000	0.19011200000000	0.00000000000000	0.11047000000000	0.00000000000000	0.00000000000000	0.00000000000000	0.00000000000000	0.00000000000000	0.00000000000000	0.00000000000000	11.11261300000000	0.00000000000000	0.00000000000000	0.00000000000000	0.00000000000000	
13.85661500000000	37.86716000000000	761.56404899999995	49.65196800000000	0.18878400000000	0.00000000000000	0.11049800000000	0.00000000000000	0.00000000000000	0.00000000000000	0.00000000000000	0.00000000000000	0.00000000000000	0.00000000000000	11.14991700000000	0.00000000000000	0.00000000000000	0.00000000000000	0.00000000000000	
13.85828800000000	37.14534600000000	760.77779799999996	49.62691300000000	0.18744100000000	0.00000000000000	0.11052500000000	0.00000000000000	0.00000000000000	0.00000000000000	0.00000000000000	0.00000000000000	0.00000000000000	0.00000000000000	11.18151700000000	0.00000000000000	0.00000000000000	0.00000000000000	0.00000000000000	
13.85995900000000	36.42152100000000	759.88318800000002	49.58447000000000	0.18608300000000	0.00000000000000	0.11055100000000	0.00000000000000	0.00000000000000	0.00000000000000	0.00000000000000	0.00000000000000	0.00000000000000	0.00000000000000	11.20734400000000	0.00000000000000	0.00000000000000	0.00000000000000	0.00000000000000	
13.86161800000000	35.69600400000000	758.88420199999996	49.52445200000000	0.18471000000000	0.00000000000000	0.11057600000000	0.00000000000000	0.00000000000000	0.00000000000000	0.00000000000000	0.00000000000000	0.00000000000000	0.00000000000000	11.22735000000000	0.00000000000000	0.00000000000000	0.00000000000000	0.00000000000000	
13.86328800000000	34.96914200000000	757.78498500000001	49.44673900000000	0.18332400000000	0.00000000000000	0.11060100000000	0.00000000000000	0.00000000000000	0.00000000000000	0.00000000000000	0.00000000000000	0.00000000000000	0.00000000000000	11.24151300000000	0.00000000000000	0.00000000000000	0.00000000000000	0.00000000000000	
13.86495400000000	34.24131000000000	756.58983200000000	49.35127500000000	0.18192400000000	0.00000000000000	0.11062400000000	0.00000000000000	0.00000000000000	0.00000000000000	0.00000000000000	0.00000000000000	0.00000000000000	0.00000000000000	11.24983200000000	0.00000000000000	0.00000000000000	0.00000000000000	0.00000000000000	
13.86662200000000	33.51291100000000	755.30317400000001	49.23807200000000	0.18051200000000	0.00000000000000	0.11064600000000	0.00000000000000	0.00000000000000	0.00000000000000	0.00000000000000	0.00000000000000	0.00000000000000	0.00000000000000	11.25233200000000	0.00000000000000	0.00000000000000	0.00000000000000	0.00000000000000	
13.86828700000000	32.78437800000000	753.92957200000001	49.10720700000000	0.17908800000000	0.00000000000000	0.11066700000000	0.00000000000000	0.00000000000000	0.00000000000000	0.00000000000000	0.00000000000000	0.00000000000000	0.00000000000000	11.24906000000000	0.00000000000000	0.00000000000000	0.00000000000000	0.00000000000000	
13.86995300000000	32.05616500000000	752.47369600000002	48.95882500000000	0.17765400000000	0.00000000000000	0.11068700000000	0.00000000000000	0.00000000000000	0.00000000000000	0.00000000000000	0.00000000000000	0.00000000000000	0.00000000000000	11.24008300000000	0.00000000000000	0.00000000000000	0.00000000000000	0.00000000000000	
13.87161500000000	31.32875600000000	750.94032100000004	48.79313400000000	0.17621100000000	0.00000000000000	0.11070600000000	0.00000000000000	0.00000000000000	0.00000000000000	0.00000000000000	0.00000000000000	0.00000000000000	0.00000000000000	11.22549100000000	0.00000000000000	0.00000000000000	0.00000000000000	0.00000000000000	
13.87328200000000	30.60265300000000	749.33430999999996	48.61041300000000	0.17475900000000	0.00000000000000	0.11072300000000	0.00000000000000	0.00000000000000	0.00000000000000	0.00000000000000	0.00000000000000	0.00000000000000	0.00000000000000	11.20539500000000	0.00000000000000	0.00000000000000	0.00000000000000	0.00000000000000	
13.87495200000000	29.87838300000000	747.66059800000005	48.41100000000000	0.17330000000000	0.00000000000000	0.11073800000000	0.00000000000000	0.00000000000000	0.00000000000000	0.00000000000000	0.00000000000000	0.00000000000000	0.00000000000000	11.17992500000000	0.00000000000000	0.00000000000000	0.00000000000000	0.00000000000000	
13.87662000000000	29.15648900000000	745.92418599999996	48.19529900000000	0.17183600000000	0.00000000000000	0.11075200000000	0.00000000000000	0.00000000000000	0.00000000000000	0.00000000000000	0.00000000000000	0.00000000000000	0.00000000000000	11.14922800000000	0.00000000000000	0.00000000000000	0.00000000000000	0.00000000000000	
13.87828400000000	28.43753400000000	744.13011900000004	47.96377400000000	0.17036700000000	0.00000000000000	0.11076500000000	0.00000000000000	0.00000000000000	0.00000000000000	0.00000000000000	0.00000000000000	0.00000000000000	0.00000000000000	11.11347000000000	0.00000000000000	0.00000000000000	0.00000000000000	0.00000000000000	
13.87995000000000	27.72209400000000	742.28347699999995	47.71694800000000	0.16889500000000	0.00000000000000	0.11077600000000	0.00000000000000	0.00000000000000	0.00000000000000	0.00000000000000	0.00000000000000	0.00000000000000	0.00000000000000	11.07283200000000	0.00000000000000	0.00000000000000	0.00000000000000	0.00000000000000	
13.88161400000000	27.01075600000000	740.38936100000001	47.45539700000000	0.16742200000000	0.00000000000000	0.11078500000000	0.00000000000000	0.00000000000000	0.00000000000000	0.00000000000000	0.00000000000000	0.00000000000000	0.00000000000000	11.02750900000000	0.00000000000000	0.00000000000000	0.00000000000000	0.00000000000000	
13.88328100000000	26.30411900000000	738.45287900000005	47.17975600000000	0.16594900000000	0.00000000000000	0.11079200000000	0.00000000000000	0.00000000000000	0.00000000000000	0.00000000000000	0.00000000000000	0.00000000000000	0.00000000000000	10.97771000000000	0.00000000000000	0.00000000000000	0.00000000000000	0.00000000000000	
